<svg width="24" height="24" viewBox="0 0 24 24" fill="none" xmlns="http://www.w3.org/2000/svg">
<path d="M11.9999 21.0001C11.8683 21.0009 11.7378 20.9757 11.616 20.9259C11.4941 20.8761 11.3833 20.8028 11.2899 20.7101L3.51987 12.9301C2.54523 11.9453 1.99854 10.6157 1.99854 9.23014C1.99854 7.84457 2.54523 6.51496 3.51987 5.53014C4.50213 4.55065 5.8327 4.00061 7.21987 4.00061C8.60704 4.00061 9.93761 4.55065 10.9199 5.53014L11.9999 6.61014L13.0799 5.53014C14.0621 4.55065 15.3927 4.00061 16.7799 4.00061C18.167 4.00061 19.4976 4.55065 20.4799 5.53014C21.4545 6.51496 22.0012 7.84457 22.0012 9.23014C22.0012 10.6157 21.4545 11.9453 20.4799 12.9301L12.7099 20.7101C12.6164 20.8028 12.5056 20.8761 12.3838 20.9259C12.2619 20.9757 12.1315 21.0009 11.9999 21.0001ZM7.21987 6.00014C6.79655 5.99822 6.37705 6.08032 5.98568 6.24167C5.59431 6.40303 5.23884 6.64043 4.93987 6.94014C4.33593 7.54726 3.99691 8.36879 3.99691 9.22514C3.99691 10.0815 4.33593 10.903 4.93987 11.5101L11.9999 18.5801L19.0599 11.5101C19.6638 10.903 20.0028 10.0815 20.0028 9.22514C20.0028 8.36879 19.6638 7.54726 19.0599 6.94014C18.4435 6.35785 17.6278 6.03344 16.7799 6.03344C15.932 6.03344 15.1162 6.35785 14.4999 6.94014L12.7099 8.74014C12.6169 8.83387 12.5063 8.90826 12.3844 8.95903C12.2626 9.0098 12.1319 9.03594 11.9999 9.03594C11.8679 9.03594 11.7372 9.0098 11.6153 8.95903C11.4934 8.90826 11.3828 8.83387 11.2899 8.74014L9.49987 6.94014C9.2009 6.64043 8.84544 6.40303 8.45406 6.24167C8.06269 6.08032 7.6432 5.99822 7.21987 6.00014Z" fill="#1C2121"/>
</svg>
